<svg width="100" height="100" viewBox="0 0 100 100" fill="none" xmlns="http://www.w3.org/2000/svg">
<path fill-rule="evenodd" clip-rule="evenodd" d="M51.2767 16.4053C49.3823 11.8519 44.8657 8.89257 39.8788 9.00299L12.987 9.59843C8.32864 9.70157 4.25585 12.7551 2.86604 17.1864C2.54572 18.2077 2.37926 19.2708 2.3721 20.3408L2.00027 75.9134C1.9557 82.5756 7.36361 88 14.0501 88H86.9499C93.713 88 99.1516 82.4555 98.9968 75.7186L98.1124 37.2385C98.0958 36.5196 98.0162 35.8169 97.8789 35.1355L97.7159 28.962C97.5313 21.9743 91.7931 16.4053 84.7777 16.4053H51.2767ZM39.9779 13.4488C43.2455 13.3764 46.1923 15.3972 47.2915 18.464L49.1574 23.6696C49.3394 24.1772 49.5609 24.6698 49.8199 25.143C51.6765 28.5345 55.2759 30.6117 59.1523 30.5287L85.9023 29.9555C90.0875 29.8658 93.5547 33.1704 93.6506 37.3403L94.535 75.8204C94.6325 80.0621 91.2081 83.5531 86.9499 83.5531H14.0501C9.84007 83.5531 6.43509 80.1377 6.46316 75.943L6.83498 20.3704C6.8392 19.7403 6.93723 19.1143 7.12587 18.5128C7.94433 15.9032 10.3428 14.1049 13.0861 14.0442L39.9779 13.4488ZM52.8866 20.8522L53.3604 22.1739C53.4641 22.4632 53.5903 22.7439 53.7379 23.0136C54.796 24.9464 56.8472 26.1302 59.0563 26.0828L85.8064 25.5096C88.5329 25.4512 91.0676 26.2999 93.1196 27.7784C92.398 23.8288 88.9292 20.8522 84.7777 20.8522H52.8866Z" fill="white" fill-opacity="0.6"/>
</svg>
