<svg width="100" height="100" viewBox="0 0 100 100" fill="none" xmlns="http://www.w3.org/2000/svg">
<path fill-rule="evenodd" clip-rule="evenodd" d="M66.1703 75.2294C64.5968 73.3954 61.8905 73.1024 59.7874 74.2947C54.1562 77.4873 47.6445 79.3104 40.7064 79.3104C19.3294 79.3104 2 62.0038 2 40.6552C2 19.3065 19.3294 2 40.7064 2C62.0834 2 79.4128 19.3065 79.4128 40.6552C79.4128 47.8065 77.4683 54.5043 74.0784 60.2499C72.8144 62.3924 73.1182 65.1931 75.0404 66.774L95.8975 83.9289C99.7785 87.121 100.061 92.9583 96.5054 96.5087C92.9969 100.013 87.2441 99.7914 84.0157 96.0286L66.1703 75.2294ZM67.8009 40.6552C67.8009 55.5992 55.6703 67.7138 40.7064 67.7138C25.7425 67.7138 13.6119 55.5992 13.6119 40.6552C13.6119 25.7111 25.7425 13.5966 40.7064 13.5966C55.6703 13.5966 67.8009 25.7111 67.8009 40.6552Z" fill="white" fill-opacity="0.6"/>
</svg>
